# xmcd CD database file
#
# Track frame offsets:
#	150
#	15771
#	32885
#	49270
#	66389
#	85522
#	107407
#	126841
#	144366
#	160502
#	177210
#	196327
#	212806
#	230503
#	248210
#	266203
#	283806
#	299749
#	315931
#	334569
#
# Disc length: 4697 seconds
#
# Revision: 8
# Processed by: cddbd v1.5.2PL0 Copyright (c) Steve Scherf et al.
# Submitted via: CDex 1.70beta2
#
DISCID=1d125714
DTITLE=Kool and The Gang - Joanna - The Best of Kool and The Gang
DYEAR=1900
DGENRE=Funk
TTITLE0=Ladies' Night
TTITLE1=Too Hot
TTITLE2=Steppin' Out
TTITLE3=Take My Heart
TTITLE4=Be My Lady
TTITLE5=Get Down On It
TTITLE6=No Show
TTITLE7=Big Fun
TTITLE8=Hi De Hi， Hi De Ho
TTITLE9=Celebration
TTITLE10=Jones vs. Jones
TTITLE11=Take It To The Top
TTITLE12=Victory
TTITLE13=In The Heart
TTITLE14=Joanna
TTITLE15=Tonight
TTITLE16=Straight Ahead
TTITLE17=Fresh
TTITLE18=Misled
TTITLE19=Cherish
EXTD=
EXTT0=
EXTT1=
EXTT2=
EXTT3=
EXTT4=
EXTT5=
EXTT6=
EXTT7=
EXTT8=
EXTT9=
EXTT10=
EXTT11=
EXTT12=
EXTT13=
EXTT14=
EXTT15=
EXTT16=
EXTT17=
EXTT18=
EXTT19=
PLAYORDER=
